<svg width="3138" height="1040" xmlns="http://www.w3.org/2000/svg" xmlns:xlink="http://www.w3.org/1999/xlink" xml:space="preserve" overflow="hidden"><defs><clipPath id="clip0"><rect x="1134" y="479" width="3138" height="1040"/></clipPath><radialGradient cx="2881745" cy="2881746" r="4075404" gradientUnits="userSpaceOnUse" spreadMethod="pad" id="fill1" gradientTransform="matrix(0.000360892 0 0 0.000360892 1134 479)"><stop offset="0" stop-color="#0078D4"/><stop offset="0.66" stop-color="#13501B"/><stop offset="1" stop-color="#107C10"/></radialGradient><linearGradient x1="1949.87" y1="982.584" x2="4215.76" y2="982.584" gradientUnits="userSpaceOnUse" spreadMethod="reflect" id="fill2"><stop offset="0" stop-color="#FFFFFF"/><stop offset="0.33" stop-color="#3A3A3A"/><stop offset="0.59"/><stop offset="0.78885" stop-color="#163E64"/><stop offset="1" stop-color="#13501B"/></linearGradient></defs><g clip-path="url(#clip0)" transform="translate(-1134 -479)"><path d="M1134 999C1134 711.812 1366.81 479 1654 479 1941.19 479 2174 711.812 2174 999 2174 1286.19 1941.19 1519 1654 1519 1366.81 1519 1134 1286.19 1134 999Z" fill="url(#fill1)" fill-rule="evenodd"/><rect x="1457" y="705" width="65" height="576" fill="#FFFFFF"/><rect x="1516" y="704" width="336" height="66" fill="#FFFFFF"/><rect x="1516" y="1216" width="336" height="65.0004" fill="#FFFFFF"/><rect x="1516" y="966" width="336" height="66.0001" fill="#FFFFFF"/><path d="M3895.59 791.63 4034.96 791.63C4060.89 791.924 4083.12 796.925 4101.64 806.634 4120.17 816.342 4134.39 828.993 4144.3 844.587 4154.22 860.181 4159.23 876.952 4159.33 894.901 4159.32 905.419 4158.54 914.766 4156.99 922.943 4155.44 931.12 4153.14 938.292 4150.11 944.458L4131.41 932.334C4133.38 927.578 4134.84 922.065 4135.79 915.793 4136.74 909.521 4137.21 902.557 4137.2 894.901 4137.11 880.459 4132.96 867.121 4124.75 854.888 4116.54 842.655 4104.82 832.794 4089.58 825.305 4074.35 817.815 4056.14 813.965 4034.96 813.754L3917.71 813.754 3917.71 1164.2 4050.25 1164.2C4073.65 1163.96 4093.35 1159.46 4109.34 1150.69 4125.34 1141.93 4137.44 1130.32 4145.65 1115.88 4153.86 1101.43 4157.98 1085.57 4158.01 1068.29 4157.75 1043.77 4152.24 1023.82 4141.48 1008.44 4130.73 993.064 4116.28 981.783 4098.14 974.603 4080 967.422 4059.73 963.87 4037.34 963.949L4006.23 963.949 4006.23 941.825 4036.28 941.825C4049.99 941.863 4061.12 938.425 4069.69 931.511 4078.25 924.596 4082.67 913.975 4082.93 899.646 4082.66 888.322 4077.93 879.865 4068.73 874.274 4059.54 868.683 4047.49 865.893 4032.59 865.904L3973.02 865.904 3973.02 993.974 4044.98 993.974C4069.87 994.402 4089.34 1001.19 4103.38 1014.33 4117.43 1027.47 4124.58 1044.4 4124.82 1065.13 4124.86 1077.26 4122.25 1088.54 4117 1098.96 4111.75 1109.38 4103.68 1117.8 4092.78 1124.24 4081.88 1130.67 4067.97 1133.98 4051.04 1134.17L3950.9 1134.17 3950.9 1046.15 3973.02 1046.15 3973.02 1112.05 4051.04 1112.05C4069.34 1111.67 4082.56 1107.02 4090.71 1098.08 4098.86 1089.14 4102.85 1078.15 4102.7 1065.13 4102.77 1051.78 4098.09 1040.38 4088.67 1030.93 4079.24 1021.47 4064.68 1016.53 4044.98 1016.1L3950.9 1016.1 3950.9 843.779 4032.59 843.779C4050.33 843.991 4064.52 846.905 4075.16 852.523 4085.8 858.14 4093.47 865.193 4098.17 873.681 4102.87 882.169 4105.17 890.824 4105.07 899.646 4105.05 907.308 4104.04 914.392 4102.04 920.9 4100.04 927.408 4097.19 933.241 4093.48 938.398 4091.95 940.325 4090.52 941.939 4089.19 943.24 4087.86 944.541 4086.3 945.825 4084.51 947.092 4114.32 954.51 4137.63 968.383 4154.45 988.712 4171.28 1009.04 4179.84 1035.57 4180.14 1068.29 4180.02 1090.32 4174.75 1110.2 4164.32 1127.94 4153.89 1145.67 4139 1159.77 4119.64 1170.24 4100.29 1180.71 4077.16 1186.07 4050.25 1186.32L3895.59 1186.32ZM3489.59 791.63 3567.02 791.63 3567.02 1033.25C3566.98 1061.21 3572.94 1082.24 3584.92 1096.36 3596.89 1110.49 3615.17 1117.56 3639.76 1117.58 3641.72 1117.57 3643.59 1117.52 3645.39 1117.41 3647.19 1117.31 3649 1117.19 3650.83 1117.05L3650.83 1169.47C3675.94 1167.73 3696.25 1162.08 3711.76 1152.52 3727.26 1142.96 3739.05 1131.21 3747.14 1117.27 3755.22 1103.33 3760.69 1088.93 3763.55 1074.06 3766.4 1059.2 3767.74 1045.59 3767.56 1033.25L3767.56 813.731 3734.37 813.731 3734.37 1033.25C3734.24 1052.74 3731.84 1069.01 3727.18 1082.08 3722.52 1095.15 3716.39 1105.6 3708.81 1113.46 3701.22 1121.31 3692.96 1127.16 3684.04 1131.01L3684.04 1105.72C3693.52 1099.01 3700.59 1089.63 3705.26 1077.59 3709.93 1065.54 3712.26 1050.76 3712.25 1033.25L3712.25 791.63 3789.68 791.63 3789.68 1033.25C3789.73 1063.75 3784.37 1090.88 3773.59 1114.66 3762.82 1138.43 3746.35 1157.17 3724.19 1170.88 3702.02 1184.58 3673.88 1191.57 3639.76 1191.85 3636.06 1191.9 3632.37 1191.81 3628.68 1191.59L3628.68 1139.18C3616.71 1138.75 3604.32 1135.47 3591.51 1129.34 3578.71 1123.21 3567.84 1112.55 3558.9 1097.37 3549.96 1082.19 3545.29 1060.82 3544.9 1033.25L3544.9 813.731 3511.71 813.731 3511.71 1033.25C3511.46 1049.5 3513.57 1066.36 3518.04 1083.83 3522.5 1101.3 3530.81 1117.26 3542.98 1131.72 3555.14 1146.17 3572.65 1157 3595.51 1164.2L3595.51 1187.11C3571.55 1180.99 3551.74 1170.72 3536.07 1156.3 3520.41 1141.88 3508.74 1124.2 3501.06 1103.24 3493.39 1082.29 3489.56 1058.96 3489.59 1033.25ZM3084.59 791.63 3162.02 791.63 3162.02 911.778 3139.92 911.778 3139.92 813.731 3106.69 813.731 3106.69 941.825 3307.25 941.825 3307.25 791.63 3384.68 791.63 3384.68 1186.32 3307.25 1186.32 3307.25 1016.1 3106.69 1016.1 3106.69 1164.22 3139.92 1164.22 3139.92 1046.14 3162.02 1046.14 3162.02 1186.32 3084.59 1186.32 3084.59 993.974 3329.35 993.974 3329.35 1164.22 3362.58 1164.22 3362.58 813.731 3329.35 813.731 3329.35 963.949 3084.59 963.949ZM2685.06 791.63 2772.55 791.63 2832.88 902.276 2820.24 925.202 2759.37 813.731 2722.48 813.731 2820.5 992.137 2930.09 791.63 3017.57 791.63 2890.03 1024.81 2890.03 1186.32 2812.6 1186.32 2812.6 1068.3 2834.72 1068.3 2834.72 1164.22 2867.91 1164.22 2867.91 1019.02 2980.15 813.731 2943.26 813.731 2820.5 1038.25ZM2106.66 791.63 2184.12 791.63 2327.73 1186.32 2246.84 1186.32 2211.26 1088.03 2022.34 1088.03 1994.67 1164.22 2028.13 1164.22 2045 1118.09 2068.45 1118.09 2043.68 1186.32 1963.05 1186.32 2006.79 1065.91 2226.81 1065.91 2262.38 1164.22 2296.11 1164.22 2168.58 813.731 2122.2 813.731 2049.48 1013.76 2184.39 1013.76 2145.39 906.498 2117.2 983.716 2093.74 983.716 2145.39 841.666 2216.01 1035.88 2017.86 1035.88ZM2510.3 785.833C2530.48 785.868 2547.31 787.055 2560.82 789.393 2574.32 791.731 2586.26 795.005 2596.63 799.216 2607 803.427 2617.58 808.36 2628.35 814.015L2602 885.671C2586.06 877.342 2570.65 871.006 2555.8 866.663 2540.94 862.32 2525.86 860.134 2510.57 860.107 2490.9 860.195 2476.07 864.038 2466.06 871.637 2456.05 879.236 2451.03 890.063 2451 904.118 2451.14 917.462 2453.7 928.312 2458.69 936.669 2463.68 945.026 2470.27 951.991 2478.45 957.566 2486.63 963.141 2495.58 968.428 2505.3 973.427 2517.8 979.747 2530.01 986.843 2541.93 994.714 2553.85 1002.59 2563.74 1012.84 2571.59 1025.49 2579.44 1038.13 2583.51 1054.78 2583.8 1075.41 2584.14 1083.76 2582.21 1092.87 2578.01 1102.74 2573.81 1112.61 2565.32 1121.16 2552.55 1128.36 2539.77 1135.57 2520.68 1139.35 2495.28 1139.7 2480.63 1139.7 2465.06 1137.6 2448.58 1133.38 2432.09 1129.17 2414.82 1122.85 2396.75 1114.42L2385.42 1144.44C2403.81 1153.22 2421.89 1159.64 2439.65 1163.7 2457.42 1167.77 2475.96 1169.78 2495.28 1169.73 2514.07 1169.7 2531.05 1167.58 2546.24 1163.37 2561.43 1159.17 2574.39 1153.03 2585.12 1144.97 2595.68 1136.9 2603.64 1127.03 2608.99 1115.33 2614.34 1103.64 2617.03 1090.34 2617.04 1075.41 2617.18 1045.77 2609.84 1020.73 2595.02 1000.27 2580.21 979.823 2557.06 963.144 2525.59 950.236L2532.97 929.417C2567.48 943.176 2593.77 961.908 2611.84 985.615 2629.91 1009.32 2639.01 1039.26 2639.14 1075.41 2638.91 1101.07 2632.66 1122.53 2620.4 1139.79 2608.14 1157.06 2591.24 1170.05 2569.7 1178.76 2548.16 1187.48 2523.35 1191.84 2495.28 1191.85 2467.7 1191.66 2442.77 1188.23 2420.49 1181.55 2398.21 1174.87 2377.3 1166.1 2357.75 1155.24L2384.63 1083.85C2402.79 1093.55 2421.27 1101.55 2440.05 1107.83 2458.83 1114.11 2477.24 1117.36 2495.28 1117.58 2516.73 1117.67 2533.14 1114.33 2544.5 1107.56 2555.87 1100.8 2561.6 1090.08 2561.7 1075.41 2561.49 1058.72 2558.14 1045.38 2551.65 1035.4 2545.16 1025.41 2536.81 1017.25 2526.6 1010.9 2516.39 1004.55 2505.6 998.469 2494.23 992.665 2483.05 986.97 2472.52 980.528 2462.65 973.339 2452.77 966.151 2444.73 957.073 2438.51 946.107 2432.3 935.142 2429.09 921.145 2428.9 904.118 2428.82 892.599 2431.55 881.847 2437.07 871.863 2442.59 861.878 2451.36 853.782 2463.39 847.574 2475.41 841.367 2491.14 838.169 2510.57 837.982 2523.4 837.966 2536.28 839.382 2549.21 842.229 2562.14 845.077 2575.6 849.456 2589.61 855.366L2600.68 825.077C2593.08 821.549 2585.39 818.508 2577.6 815.956 2569.82 813.403 2560.64 811.436 2550.08 810.054 2539.51 808.672 2526.25 807.973 2510.3 807.957 2489.06 807.961 2469.82 811.552 2452.6 818.727 2435.37 825.903 2421.64 836.635 2411.41 850.925 2401.18 865.215 2395.95 883.034 2395.7 904.382 2395.84 923.468 2399.1 940.022 2405.47 954.043 2411.85 968.064 2420.5 979.932 2431.41 989.649 2442.32 999.365 2454.65 1007.31 2468.4 1013.48L2460.75 1034.3C2432.58 1021.64 2411.03 1004.47 2396.12 982.782 2381.21 961.096 2373.69 934.962 2373.56 904.382 2373.9 878.2 2380.31 856.324 2392.8 838.751 2405.28 821.179 2421.82 807.968 2442.41 799.12 2463.01 790.271 2485.64 785.842 2510.3 785.833Z" fill="url(#fill2)" fill-rule="evenodd"/><text fill="#000000" fill-opacity="0" font-family="Arial,Arial_MSFontService,sans-serif" font-size="406.031" x="1963.05" y="1141.11">asyHub</text></g></svg>