<svg width="1949" height="1949" xmlns="http://www.w3.org/2000/svg" xmlns:xlink="http://www.w3.org/1999/xlink" xml:space="preserve" overflow="hidden"><defs><clipPath id="clip0"><rect x="1271" y="95" width="1949" height="1949"/></clipPath><radialGradient cx="2025537" cy="2025537" r="2864542" gradientUnits="userSpaceOnUse" spreadMethod="pad" id="fill1" gradientTransform="matrix(0.000360892 0 0 0.000360892 1880 460)"><stop offset="0" stop-color="#0078D4"/><stop offset="0.66" stop-color="#13501B"/><stop offset="1" stop-color="#107C10"/></radialGradient><radialGradient cx="5400502" cy="5400502" r="7637463" gradientUnits="userSpaceOnUse" spreadMethod="pad" id="fill2" gradientTransform="matrix(0.000360892 0 0 0.000360892 1271 94.9999)"><stop offset="0" stop-color="#0078D4"/><stop offset="0.66" stop-color="#13501B"/><stop offset="1" stop-color="#107C10"/></radialGradient></defs><g clip-path="url(#clip0)" transform="translate(-1271 -95)"><path d="M2611 825.5C2611 1027.36 2447.36 1191 2245.5 1191 2043.64 1191 1880 1027.36 1880 825.5 1880 623.641 2043.64 460 2245.5 460 2447.36 460 2611 623.641 2611 825.5" fill="url(#fill1)" fill-rule="evenodd"/><path d="M1271 1069.5C1271 531.298 1707.3 94.9999 2245.5 94.9999 2783.7 94.9999 3220 531.298 3220 1069.5 3220 1607.7 2783.7 2044 2245.5 2044 1707.3 2044 1271 1607.7 1271 1069.5M2245.5 216.812C1774.57 216.838 1392.83 598.619 1392.86 1069.54 1392.87 1263 1458.66 1450.7 1579.43 1601.82 1665.92 1462.47 1856.31 1313.12 2245.5 1313.12 2634.69 1313.12 2824.96 1462.35 2911.57 1601.82 3205.57 1233.93 3145.66 697.376 2777.77 403.384 2626.65 282.614 2438.95 216.822 2245.5 216.812" fill="url(#fill2)" fill-rule="evenodd"/></g></svg>